<mxfile host="app.diagrams.net" modified="2021-06-08T03:22:15.913Z" agent="5.0 (Windows NT 10.0; Win64; x64) AppleWebKit/537.36 (KHTML, like Gecko) Chrome/91.0.4472.77 Safari/537.36" etag="qib7yL179dVOLd7sXBVS" version="14.7.3" type="github">
  <diagram name="Page-1" id="9f46799a-70d6-7492-0946-bef42562c5a5">
    <mxGraphModel dx="920" dy="725" grid="1" gridSize="10" guides="1" tooltips="1" connect="1" arrows="1" fold="1" page="1" pageScale="1" pageWidth="1100" pageHeight="850" background="none" math="0" shadow="0">
      <root>
        <mxCell id="0" />
        <mxCell id="1" parent="0" />
        <mxCell id="78961159f06e98e8-17" value="week_detail" style="swimlane;html=1;fontStyle=1;align=center;verticalAlign=top;childLayout=stackLayout;horizontal=1;startSize=26;horizontalStack=0;resizeParent=1;resizeLast=0;collapsible=1;marginBottom=0;swimlaneFillColor=#ffffff;rounded=0;shadow=0;comic=0;labelBackgroundColor=none;strokeWidth=1;fillColor=#91C2F2;fontFamily=Verdana;fontSize=12" parent="1" vertex="1">
          <mxGeometry x="80" y="46" width="160" height="158" as="geometry">
            <mxRectangle x="90" y="83" width="100" height="26" as="alternateBounds" />
          </mxGeometry>
        </mxCell>
        <mxCell id="78961159f06e98e8-21" value="&amp;nbsp; &amp;nbsp; &amp;nbsp;week_num" style="text;html=1;strokeColor=none;fillColor=none;align=left;verticalAlign=top;spacingLeft=4;spacingRight=4;whiteSpace=wrap;overflow=hidden;rotatable=0;points=[[0,0.5],[1,0.5]];portConstraint=eastwest;fontStyle=4" parent="78961159f06e98e8-17" vertex="1">
          <mxGeometry y="26" width="160" height="26" as="geometry" />
        </mxCell>
        <mxCell id="XXgxBBbs3WMqpqDe97Bb-18" value="&amp;nbsp; &amp;nbsp; &amp;nbsp; team" style="text;html=1;fillColor=none;align=left;verticalAlign=middle;whiteSpace=wrap;rounded=0;pointerEvents=1;fontStyle=4" vertex="1" parent="78961159f06e98e8-17">
          <mxGeometry y="52" width="160" height="20" as="geometry" />
        </mxCell>
        <mxCell id="78961159f06e98e8-23" value="&amp;nbsp; &amp;nbsp; &amp;nbsp;Pts" style="text;html=1;strokeColor=none;fillColor=none;align=left;verticalAlign=top;spacingLeft=4;spacingRight=4;whiteSpace=wrap;overflow=hidden;rotatable=0;points=[[0,0.5],[1,0.5]];portConstraint=eastwest;" parent="78961159f06e98e8-17" vertex="1">
          <mxGeometry y="72" width="160" height="26" as="geometry" />
        </mxCell>
        <mxCell id="78961159f06e98e8-26" value="&amp;nbsp; &amp;nbsp; &amp;nbsp;PI" style="text;html=1;strokeColor=none;fillColor=none;align=left;verticalAlign=top;spacingLeft=4;spacingRight=4;whiteSpace=wrap;overflow=hidden;rotatable=0;points=[[0,0.5],[1,0.5]];portConstraint=eastwest;" parent="78961159f06e98e8-17" vertex="1">
          <mxGeometry y="98" width="160" height="26" as="geometry" />
        </mxCell>
        <mxCell id="78961159f06e98e8-24" value="&amp;nbsp; &amp;nbsp; &amp;nbsp;GD" style="text;html=1;strokeColor=none;fillColor=none;align=left;verticalAlign=top;spacingLeft=4;spacingRight=4;whiteSpace=wrap;overflow=hidden;rotatable=0;points=[[0,0.5],[1,0.5]];portConstraint=eastwest;" parent="78961159f06e98e8-17" vertex="1">
          <mxGeometry y="124" width="160" height="26" as="geometry" />
        </mxCell>
        <mxCell id="78961159f06e98e8-19" value="" style="line;html=1;strokeWidth=1;fillColor=none;align=left;verticalAlign=middle;spacingTop=-1;spacingLeft=3;spacingRight=3;rotatable=0;labelPosition=right;points=[];portConstraint=eastwest;" parent="78961159f06e98e8-17" vertex="1">
          <mxGeometry y="150" width="160" height="8" as="geometry" />
        </mxCell>
        <mxCell id="78961159f06e98e8-30" value="Team_performance" style="swimlane;html=1;fontStyle=1;align=center;verticalAlign=top;childLayout=stackLayout;horizontal=1;startSize=26;horizontalStack=0;resizeParent=1;resizeLast=0;collapsible=1;marginBottom=0;swimlaneFillColor=#ffffff;rounded=0;shadow=0;comic=0;labelBackgroundColor=none;strokeWidth=1;fillColor=#91C2F2;fontFamily=Verdana;fontSize=12" parent="1" vertex="1">
          <mxGeometry x="420" y="52" width="160" height="152" as="geometry" />
        </mxCell>
        <mxCell id="78961159f06e98e8-31" value="week_num" style="text;html=1;strokeColor=none;fillColor=none;align=left;verticalAlign=top;spacingLeft=4;spacingRight=4;whiteSpace=wrap;overflow=hidden;rotatable=0;points=[[0,0.5],[1,0.5]];portConstraint=eastwest;fontStyle=4" parent="78961159f06e98e8-30" vertex="1">
          <mxGeometry y="26" width="160" height="26" as="geometry" />
        </mxCell>
        <mxCell id="78961159f06e98e8-32" value="week_rank" style="text;html=1;strokeColor=none;fillColor=none;align=left;verticalAlign=top;spacingLeft=4;spacingRight=4;whiteSpace=wrap;overflow=hidden;rotatable=0;points=[[0,0.5],[1,0.5]];portConstraint=eastwest;" parent="78961159f06e98e8-30" vertex="1">
          <mxGeometry y="52" width="160" height="26" as="geometry" />
        </mxCell>
        <mxCell id="XXgxBBbs3WMqpqDe97Bb-1" value="team" style="text;html=1;strokeColor=none;fillColor=none;align=left;verticalAlign=top;spacingLeft=4;spacingRight=4;whiteSpace=wrap;overflow=hidden;rotatable=0;points=[[0,0.5],[1,0.5]];portConstraint=eastwest;fontStyle=4" vertex="1" parent="78961159f06e98e8-30">
          <mxGeometry y="78" width="160" height="26" as="geometry" />
        </mxCell>
        <mxCell id="XXgxBBbs3WMqpqDe97Bb-14" value="&amp;nbsp;year_rank" style="text;html=1;strokeColor=none;fillColor=none;align=left;verticalAlign=middle;whiteSpace=wrap;rounded=0;" vertex="1" parent="78961159f06e98e8-30">
          <mxGeometry y="104" width="160" height="20" as="geometry" />
        </mxCell>
        <mxCell id="XXgxBBbs3WMqpqDe97Bb-15" value="&amp;nbsp;year" style="text;html=1;strokeColor=none;fillColor=none;align=left;verticalAlign=middle;whiteSpace=wrap;rounded=0;" vertex="1" parent="78961159f06e98e8-30">
          <mxGeometry y="124" width="160" height="20" as="geometry" />
        </mxCell>
        <mxCell id="78961159f06e98e8-38" value="" style="line;html=1;strokeWidth=1;fillColor=none;align=left;verticalAlign=middle;spacingTop=-1;spacingLeft=3;spacingRight=3;rotatable=0;labelPosition=right;points=[];portConstraint=eastwest;" parent="78961159f06e98e8-30" vertex="1">
          <mxGeometry y="144" width="160" height="8" as="geometry" />
        </mxCell>
        <mxCell id="78961159f06e98e8-43" value="odds" style="swimlane;html=1;fontStyle=1;align=center;verticalAlign=top;childLayout=stackLayout;horizontal=1;startSize=26;horizontalStack=0;resizeParent=1;resizeLast=0;collapsible=1;marginBottom=0;swimlaneFillColor=#ffffff;rounded=0;shadow=0;comic=0;labelBackgroundColor=none;strokeWidth=1;fillColor=#91C2F2;fontFamily=Verdana;fontSize=12" parent="1" vertex="1">
          <mxGeometry x="790" y="40" width="160" height="230" as="geometry" />
        </mxCell>
        <mxCell id="78961159f06e98e8-44" value="week_num" style="text;html=1;strokeColor=none;fillColor=none;align=left;verticalAlign=top;spacingLeft=4;spacingRight=4;whiteSpace=wrap;overflow=hidden;rotatable=0;points=[[0,0.5],[1,0.5]];portConstraint=eastwest;fontStyle=4" parent="78961159f06e98e8-43" vertex="1">
          <mxGeometry y="26" width="160" height="26" as="geometry" />
        </mxCell>
        <mxCell id="XXgxBBbs3WMqpqDe97Bb-8" value="&amp;nbsp;date" style="text;html=1;strokeColor=none;fillColor=none;align=left;verticalAlign=middle;whiteSpace=wrap;rounded=0;" vertex="1" parent="78961159f06e98e8-43">
          <mxGeometry y="52" width="160" height="20" as="geometry" />
        </mxCell>
        <mxCell id="78961159f06e98e8-45" value="home_team" style="text;html=1;strokeColor=none;fillColor=none;align=left;verticalAlign=top;spacingLeft=4;spacingRight=4;whiteSpace=wrap;overflow=hidden;rotatable=0;points=[[0,0.5],[1,0.5]];portConstraint=eastwest;fontStyle=4" parent="78961159f06e98e8-43" vertex="1">
          <mxGeometry y="72" width="160" height="26" as="geometry" />
        </mxCell>
        <mxCell id="78961159f06e98e8-49" value="away_team" style="text;html=1;strokeColor=none;fillColor=none;align=left;verticalAlign=top;spacingLeft=4;spacingRight=4;whiteSpace=wrap;overflow=hidden;rotatable=0;points=[[0,0.5],[1,0.5]];portConstraint=eastwest;" parent="78961159f06e98e8-43" vertex="1">
          <mxGeometry y="98" width="160" height="26" as="geometry" />
        </mxCell>
        <mxCell id="78961159f06e98e8-50" value="FTR" style="text;html=1;strokeColor=none;fillColor=none;align=left;verticalAlign=top;spacingLeft=4;spacingRight=4;whiteSpace=wrap;overflow=hidden;rotatable=0;points=[[0,0.5],[1,0.5]];portConstraint=eastwest;" parent="78961159f06e98e8-43" vertex="1">
          <mxGeometry y="124" width="160" height="26" as="geometry" />
        </mxCell>
        <mxCell id="78961159f06e98e8-51" value="" style="line;html=1;strokeWidth=1;fillColor=none;align=left;verticalAlign=middle;spacingTop=-1;spacingLeft=3;spacingRight=3;rotatable=0;labelPosition=right;points=[];portConstraint=eastwest;" parent="78961159f06e98e8-43" vertex="1">
          <mxGeometry y="150" width="160" height="8" as="geometry" />
        </mxCell>
        <mxCell id="78961159f06e98e8-52" value="B365H" style="text;html=1;strokeColor=none;fillColor=none;align=left;verticalAlign=top;spacingLeft=4;spacingRight=4;whiteSpace=wrap;overflow=hidden;rotatable=0;points=[[0,0.5],[1,0.5]];portConstraint=eastwest;" parent="78961159f06e98e8-43" vertex="1">
          <mxGeometry y="158" width="160" height="26" as="geometry" />
        </mxCell>
        <mxCell id="78961159f06e98e8-53" value="B365A" style="text;html=1;strokeColor=none;fillColor=none;align=left;verticalAlign=top;spacingLeft=4;spacingRight=4;whiteSpace=wrap;overflow=hidden;rotatable=0;points=[[0,0.5],[1,0.5]];portConstraint=eastwest;" parent="78961159f06e98e8-43" vertex="1">
          <mxGeometry y="184" width="160" height="26" as="geometry" />
        </mxCell>
        <mxCell id="XXgxBBbs3WMqpqDe97Bb-7" value="&amp;nbsp;B365D" style="text;html=1;strokeColor=none;fillColor=none;align=left;verticalAlign=middle;whiteSpace=wrap;rounded=0;" vertex="1" parent="78961159f06e98e8-43">
          <mxGeometry y="210" width="160" height="20" as="geometry" />
        </mxCell>
        <mxCell id="78961159f06e98e8-56" value="team" style="swimlane;html=1;fontStyle=1;align=center;verticalAlign=top;childLayout=stackLayout;horizontal=1;startSize=26;horizontalStack=0;resizeParent=1;resizeLast=0;collapsible=1;marginBottom=0;swimlaneFillColor=#ffffff;rounded=0;shadow=0;comic=0;labelBackgroundColor=none;strokeWidth=1;fillColor=#91C2F2;fontFamily=Verdana;fontSize=12" parent="1" vertex="1">
          <mxGeometry x="80" y="340" width="160" height="114" as="geometry" />
        </mxCell>
        <mxCell id="78961159f06e98e8-57" value="&lt;span style=&quot;text-align: center&quot;&gt;team_name&lt;/span&gt;" style="text;html=1;strokeColor=none;fillColor=none;align=left;verticalAlign=top;spacingLeft=4;spacingRight=4;whiteSpace=wrap;overflow=hidden;rotatable=0;points=[[0,0.5],[1,0.5]];portConstraint=eastwest;fontStyle=4" parent="78961159f06e98e8-56" vertex="1">
          <mxGeometry y="26" width="160" height="26" as="geometry" />
        </mxCell>
        <mxCell id="78961159f06e98e8-58" value="&lt;span style=&quot;text-align: center&quot;&gt;team_stadium_location&lt;/span&gt;" style="text;html=1;strokeColor=none;fillColor=none;align=left;verticalAlign=top;spacingLeft=4;spacingRight=4;whiteSpace=wrap;overflow=hidden;rotatable=0;points=[[0,0.5],[1,0.5]];portConstraint=eastwest;" parent="78961159f06e98e8-56" vertex="1">
          <mxGeometry y="52" width="160" height="28" as="geometry" />
        </mxCell>
        <mxCell id="78961159f06e98e8-64" value="" style="line;html=1;strokeWidth=1;fillColor=none;align=left;verticalAlign=middle;spacingTop=-1;spacingLeft=3;spacingRight=3;rotatable=0;labelPosition=right;points=[];portConstraint=eastwest;" parent="78961159f06e98e8-56" vertex="1">
          <mxGeometry y="80" width="160" height="8" as="geometry" />
        </mxCell>
        <mxCell id="XXgxBBbs3WMqpqDe97Bb-4" value="" style="points=[[0,0.5,0],[0.24,0,0],[0.5,0.28,0],[0.995,0.475,0],[0.5,0.72,0],[0.24,1,0]];verticalLabelPosition=bottom;html=1;verticalAlign=top;aspect=fixed;align=center;pointerEvents=1;shape=mxgraph.cisco19.key;fillColor=#005073;strokeColor=#FFFF33;fontColor=#FFFFCC;" vertex="1" parent="1">
          <mxGeometry x="170" y="83" width="20" height="14" as="geometry" />
        </mxCell>
        <mxCell id="XXgxBBbs3WMqpqDe97Bb-16" value="" style="points=[[0,0.5,0],[0.24,0,0],[0.5,0.28,0],[0.995,0.475,0],[0.5,0.72,0],[0.24,1,0]];verticalLabelPosition=bottom;html=1;verticalAlign=top;aspect=fixed;align=center;pointerEvents=1;shape=mxgraph.cisco19.key;fillColor=#005073;strokeColor=#FFFF33;fontColor=#FFFFCC;" vertex="1" parent="1">
          <mxGeometry x="496" y="83" width="20" height="14" as="geometry" />
        </mxCell>
        <mxCell id="XXgxBBbs3WMqpqDe97Bb-19" value="" style="points=[[0,0.5,0],[0.24,0,0],[0.5,0.28,0],[0.995,0.475,0],[0.5,0.72,0],[0.24,1,0]];verticalLabelPosition=bottom;html=1;verticalAlign=top;aspect=fixed;align=center;pointerEvents=1;shape=mxgraph.cisco19.key;fillColor=#005073;strokeColor=#FFFF33;fontColor=#FFFFCC;" vertex="1" parent="1">
          <mxGeometry x="870" y="70" width="20" height="14" as="geometry" />
        </mxCell>
        <mxCell id="XXgxBBbs3WMqpqDe97Bb-20" value="" style="points=[[0,0.5,0],[0.24,0,0],[0.5,0.28,0],[0.995,0.475,0],[0.5,0.72,0],[0.24,1,0]];verticalLabelPosition=bottom;html=1;verticalAlign=top;aspect=fixed;align=center;pointerEvents=1;shape=mxgraph.cisco19.key;fillColor=#005073;strokeColor=#FFFF33;fontColor=#FFFFCC;" vertex="1" parent="1">
          <mxGeometry x="496" y="133" width="20" height="14" as="geometry" />
        </mxCell>
        <mxCell id="XXgxBBbs3WMqpqDe97Bb-21" value="" style="points=[[0,0.5,0],[0.24,0,0],[0.5,0.28,0],[0.995,0.475,0],[0.5,0.72,0],[0.24,1,0]];verticalLabelPosition=bottom;html=1;verticalAlign=top;aspect=fixed;align=center;pointerEvents=1;shape=mxgraph.cisco19.key;fillColor=#005073;strokeColor=#FFFF33;fontColor=#FFFFCC;" vertex="1" parent="1">
          <mxGeometry x="170" y="103" width="20" height="14" as="geometry" />
        </mxCell>
        <mxCell id="XXgxBBbs3WMqpqDe97Bb-22" value="" style="points=[[0,0.5,0],[0.24,0,0],[0.5,0.28,0],[0.995,0.475,0],[0.5,0.72,0],[0.24,1,0]];verticalLabelPosition=bottom;html=1;verticalAlign=top;aspect=fixed;align=center;pointerEvents=1;shape=mxgraph.cisco19.key;fillColor=#005073;strokeColor=#FFFF33;fontColor=#FFFFCC;" vertex="1" parent="1">
          <mxGeometry x="180" y="373" width="20" height="14" as="geometry" />
        </mxCell>
        <mxCell id="XXgxBBbs3WMqpqDe97Bb-23" value="" style="points=[[0,0.5,0],[0.24,0,0],[0.5,0.28,0],[0.995,0.475,0],[0.5,0.72,0],[0.24,1,0]];verticalLabelPosition=bottom;html=1;verticalAlign=top;aspect=fixed;align=center;pointerEvents=1;shape=mxgraph.cisco19.key;fillColor=#005073;strokeColor=#FFFF33;fontColor=#FFFFCC;" vertex="1" parent="1">
          <mxGeometry x="870" y="120" width="20" height="14" as="geometry" />
        </mxCell>
        <mxCell id="XXgxBBbs3WMqpqDe97Bb-24" value="" style="endArrow=ERoneToMany;html=1;fontColor=#000000;exitX=1;exitY=0.5;exitDx=0;exitDy=0;entryX=-0.019;entryY=0.769;entryDx=0;entryDy=0;entryPerimeter=0;startArrow=ERone;startFill=0;endFill=0;" edge="1" parent="1" source="78961159f06e98e8-57" target="XXgxBBbs3WMqpqDe97Bb-1">
          <mxGeometry width="50" height="50" relative="1" as="geometry">
            <mxPoint x="280" y="380" as="sourcePoint" />
            <mxPoint x="330" y="330" as="targetPoint" />
          </mxGeometry>
        </mxCell>
        <mxCell id="XXgxBBbs3WMqpqDe97Bb-25" value="1,1" style="edgeLabel;html=1;align=center;verticalAlign=middle;resizable=0;points=[];fontColor=#000000;" vertex="1" connectable="0" parent="XXgxBBbs3WMqpqDe97Bb-24">
          <mxGeometry x="0.2577" y="2" relative="1" as="geometry">
            <mxPoint as="offset" />
          </mxGeometry>
        </mxCell>
        <mxCell id="XXgxBBbs3WMqpqDe97Bb-30" value="1..1" style="edgeLabel;html=1;align=center;verticalAlign=middle;resizable=0;points=[];fontColor=#000000;" vertex="1" connectable="0" parent="XXgxBBbs3WMqpqDe97Bb-24">
          <mxGeometry x="0.2468" relative="1" as="geometry">
            <mxPoint y="-1" as="offset" />
          </mxGeometry>
        </mxCell>
        <mxCell id="XXgxBBbs3WMqpqDe97Bb-31" value="1..m" style="edgeLabel;html=1;align=center;verticalAlign=middle;resizable=0;points=[];fontColor=#000000;" vertex="1" connectable="0" parent="XXgxBBbs3WMqpqDe97Bb-24">
          <mxGeometry x="0.2679" y="-4" relative="1" as="geometry">
            <mxPoint y="-1" as="offset" />
          </mxGeometry>
        </mxCell>
        <mxCell id="XXgxBBbs3WMqpqDe97Bb-26" value="" style="endArrow=ERmandOne;startArrow=ERmandOne;html=1;fontColor=#000000;exitX=1;exitY=0.5;exitDx=0;exitDy=0;entryX=0;entryY=0.5;entryDx=0;entryDy=0;endFill=0;startFill=0;" edge="1" parent="1" source="78961159f06e98e8-21" target="78961159f06e98e8-31">
          <mxGeometry width="50" height="50" relative="1" as="geometry">
            <mxPoint x="440" y="220" as="sourcePoint" />
            <mxPoint x="490" y="170" as="targetPoint" />
            <Array as="points">
              <mxPoint x="340" y="85" />
            </Array>
          </mxGeometry>
        </mxCell>
        <mxCell id="XXgxBBbs3WMqpqDe97Bb-32" value="1...1" style="edgeLabel;html=1;align=center;verticalAlign=middle;resizable=0;points=[];fontColor=#000000;" vertex="1" connectable="0" parent="XXgxBBbs3WMqpqDe97Bb-26">
          <mxGeometry x="-0.0012" y="-1" relative="1" as="geometry">
            <mxPoint as="offset" />
          </mxGeometry>
        </mxCell>
        <mxCell id="XXgxBBbs3WMqpqDe97Bb-27" style="edgeStyle=orthogonalEdgeStyle;rounded=0;orthogonalLoop=1;jettySize=auto;html=1;exitX=1;exitY=0.5;exitDx=0;exitDy=0;fontColor=#000000;startArrow=ERmandOne;startFill=0;endArrow=ERmandOne;endFill=0;" edge="1" parent="1" source="XXgxBBbs3WMqpqDe97Bb-18" target="XXgxBBbs3WMqpqDe97Bb-1">
          <mxGeometry relative="1" as="geometry">
            <Array as="points">
              <mxPoint x="330" y="108" />
              <mxPoint x="330" y="143" />
            </Array>
          </mxGeometry>
        </mxCell>
        <mxCell id="XXgxBBbs3WMqpqDe97Bb-35" value="1..1" style="edgeLabel;html=1;align=center;verticalAlign=middle;resizable=0;points=[];fontColor=#000000;" vertex="1" connectable="0" parent="XXgxBBbs3WMqpqDe97Bb-27">
          <mxGeometry x="0.3116" y="2" relative="1" as="geometry">
            <mxPoint as="offset" />
          </mxGeometry>
        </mxCell>
        <mxCell id="XXgxBBbs3WMqpqDe97Bb-28" style="edgeStyle=orthogonalEdgeStyle;rounded=0;orthogonalLoop=1;jettySize=auto;html=1;exitX=1;exitY=0.5;exitDx=0;exitDy=0;entryX=0;entryY=0.5;entryDx=0;entryDy=0;fontColor=#000000;startArrow=ERmandOne;startFill=0;endArrow=ERmandOne;endFill=0;" edge="1" parent="1" source="78961159f06e98e8-31" target="78961159f06e98e8-44">
          <mxGeometry relative="1" as="geometry" />
        </mxCell>
        <mxCell id="XXgxBBbs3WMqpqDe97Bb-34" value="1...1" style="edgeLabel;html=1;align=center;verticalAlign=middle;resizable=0;points=[];fontColor=#000000;" vertex="1" connectable="0" parent="XXgxBBbs3WMqpqDe97Bb-28">
          <mxGeometry x="-0.2162" y="3" relative="1" as="geometry">
            <mxPoint as="offset" />
          </mxGeometry>
        </mxCell>
        <mxCell id="XXgxBBbs3WMqpqDe97Bb-29" style="edgeStyle=orthogonalEdgeStyle;rounded=0;orthogonalLoop=1;jettySize=auto;html=1;exitX=1;exitY=0.5;exitDx=0;exitDy=0;fontColor=#000000;startArrow=ERmandOne;startFill=0;endArrow=ERmandOne;endFill=0;" edge="1" parent="1" source="XXgxBBbs3WMqpqDe97Bb-1" target="78961159f06e98e8-45">
          <mxGeometry relative="1" as="geometry">
            <Array as="points">
              <mxPoint x="685" y="143" />
              <mxPoint x="685" y="125" />
            </Array>
          </mxGeometry>
        </mxCell>
        <mxCell id="XXgxBBbs3WMqpqDe97Bb-33" value="1...1" style="edgeLabel;html=1;align=center;verticalAlign=middle;resizable=0;points=[];fontColor=#000000;" vertex="1" connectable="0" parent="XXgxBBbs3WMqpqDe97Bb-29">
          <mxGeometry x="-0.4298" y="2" relative="1" as="geometry">
            <mxPoint as="offset" />
          </mxGeometry>
        </mxCell>
      </root>
    </mxGraphModel>
  </diagram>
</mxfile>
